<?xml version="1.0" encoding="UTF-8"?>
<svg id="Logo" xmlns="http://www.w3.org/2000/svg" viewBox="0 0 2000 859.19">
  <defs>
    <style>
      .cls-1 {
        fill: #fff;
      }
    </style>
  </defs>
  <path class="cls-1" d="M1405.04,200.06c-1.07,.88-2.09,1.83-3.2,2.64-25.08,18.27-27.7,48.11-3.47,67.58,16.4,13.18,35.71,22.98,54.44,32.92,25.27,13.41,51.64,24.79,76.74,38.49,11.15,6.09,21.33,14.8,30.26,23.97,25.53,26.23,26.85,64.98,3.99,93.7-11.8,14.82-26.8,25.33-44.74,31.56-12.19,1.92-24.38,3.84-38.57,6.07,5.43-6.59,10.81-13.13,16.54-20.08v-37.85c-11.8-29.4-39.68-37.85-71.72-56.41-10.21-4.39-28.93-12.44-47.65-20.5,.24-.52,.48-1.03,.71-1.55h-11.51s.13,.08,.13,.08c-2.28-1.18-4.57-2.37-6.85-3.55,0,0-.01,0-.02,0-1.74-1.04-3.47-2.08-5.2-3.12-12.74-10.41-25.47-20.82-38.21-31.23,0-3.45,0-6.91,0-10.39-4.39-5.15-8.64-10.15-12.9-15.15,0,0,.04-.69,.04-.69,1.49-11.45,2.92-22.9,4.5-34.33,2.61-18.85,18.24-28.35,29.84-40.52,6.45-6.77,14.69-11.84,22.12-17.67l.6,.15s-.61-.09-.61-.09c9.45-2.03,18.82-4.66,28.37-5.84,5.31-.65,10.91,1.13,16.38,1.81Z"/>
  <path class="cls-1" d="M657.48,351.33c.31,24.44,.7,48.89,.91,73.33,.09,10.85-.18,21.7-.29,32.56-1.07,1.34-2.14,2.68-3.21,4.02-.31-.15-.62-.29-.92-.44,.28,.17,.56,.35,.84,.52-7.04,14.61,6.84,24.46,9.03,36.36h-82.91c-.87,.75-3.22,2.79-5.44,4.72-5.05-1.66-9.85-3.24-14.94-4.91,0-2.32,0-4.39,0-6.46,2.59-.55,5.18-1.1,6.05-1.29,2.29-7.76,4.56-13.87,5.77-20.18,.69-3.59-.06-7.55-.66-11.26-.7-4.29-2.82-8.49-2.83-12.74-.21-48.96-.13-97.92-.13-146.89,0-29.18,0-58.36,0-88.13-2.89-2.02-5.64-3.95-8.39-5.88,.89-2.68,1.79-5.37,3.05-9.15,6.8,1.03,14.09,2.13,21.37,3.24,4.77-1.21,9.7-1.87,14.58-1.58,4.46,.27,8.88,2.38,13.27,2.27,15.29-.41,30.55-1.81,45.83-1.95,3.69-.04,7.41,3.29,11.11,5.08,0,0-.09,.06-.09,.06-1.22,1.15-2.45,2.3-3.67,3.46l-.02,.55s-.5,.23-.5,.23c-2.76,1.14-5.52,2.27-8.87,3.65,.61,9.77,1.17,18.75,1.73,27.74-.11,33.04-.22,66.08-.33,99.11l-.54,.87,.5,.89c.35,2.17,.7,4.33,1.05,6.5-.45,1.9-.91,3.8-1.36,5.69Zm-4.23,96.96c.35-.08,.7-.16,1.04-.23v-24.45c-.35,0-.7,0-1.04,0v24.67Zm1-96.87h-.88v3.14h.88v-3.14Z"/>
  <path class="cls-1" d="M782.37,204.31s.65,.15,.65,.15c7.19,2.71,14.38,5.42,21.58,8.13l-.43,.35s.36-.42,.36-.42c1.65,3.04,3.3,6.09,4.78,8.81h10.28c34.16,22.85,37.46,67.61,6.95,94.96-17.26,15.47-38.62,21.81-60.53,26.78-5.44,1.23-10.99,1.94-16.49,2.89h-9.18c-.05,.81-.1,1.61-.15,2.42,3.11,.37,6.21,.75,9.32,1.12,26.62,6.41,50.47,17.43,67.09,40.45,.87,2.87,1.21,6.05,2.71,8.54,5,8.28,10.62,16.18,15.59,24.47,3.25,5.42,5.62,11.37,8.7,16.9,2.73,4.89,5.91,9.54,8.89,14.29-.54,.43-1.08,.86-1.62,1.29,2.45,1.09,4.9,2.18,7.07,3.15,.62,3.26,1.14,5.97,1.66,8.68,1.35-1.27,2.71-2.54,4.06-3.8,4.64,4.89,9.28,9.78,13.92,14.67-.85,.7-1.69,1.4-2.54,2.1,4.38,2.78,8.75,5.57,12.91,8.21,3.7,2.69,7.14,5.19,10.58,7.69-.59,1.58-1.18,3.16-1.78,4.73-21.02-1.84-42.1-3.11-63.03-5.69-16.38-2.02-34.11-.55-47.35-13.59-8.36-8.23-16.77-16.46-24.39-25.36-6.39-7.46-11.66-15.88-17.42-23.87l.42-.32s-.34,.41-.34,.41c-.78-5.67-.63-11.69-2.55-16.95-3.95-10.79-8.67-21.33-13.79-31.62-1.98-3.97-5.89-6.98-8.92-10.42,0,0,.08,.09,.08,.09-.2-12.92-10.78-17.64-19.63-24.25,4.24-1.27,8-2.39,11.76-3.51,22.14-4.53,33.82-19.41,36.19-40.6,2.08-18.56,1.2-37.46,1.62-56.21,0-4.18,.55-8.47-.23-12.5-.42-2.15-3.13-3.85-4.81-5.76l-.04-.04c4.23-14.75-11.81-19.61-16.53-32.08,4.23,.46,6.79,.74,9.36,1.01,15.07,1.58,30.15,3.15,45.22,4.72Z"/>
  <path class="cls-1" d="M1079.24,195.01c1.46,0,2.92,0,4.39,0,6.82,12.92-4.35,19.05-10.58,27.21,0,19.81-.14,39.66,.18,59.49,.04,2.38,2.57,4.71,3.94,7.07,.02,11.24,.03,22.49,.05,33.73-1.38,1.67-3.84,3.25-3.97,5.02-1.66,21.31-3.24,42.63-4.29,63.97-.57,11.52-.16,23.1-.07,34.65,.02,2.84,.5,5.68,.77,8.52,1.12-.03,2.23-.05,3.34-.08,0-9.77-.33-19.56,.19-29.31,.17-3.14,2.6-6.17,3.99-9.25,.02,20.36,.04,40.71,.06,61.07v34.46c2.93,2.07,5.24,3.71,9.42,6.66h-102.89c4.31-3.57,6.83-5.66,8.49-7.03,1.85-9.17,4.85-17.2,4.89-25.25,.37-71.04,.56-142.08-.06-213.12-.14-15.68-3.7-31.33-5.9-48.76h59.44c-.02-1.4-.03-2.81-.05-4.21h-66.16c.05-1.16,.1-2.32,.15-3.49,23.27,0,46.54,.12,69.81-.06,8.29-.06,16.58-.85,24.87-1.3Zm-8.77,299.43c-2.99-8.76-5.37-15.71-7.74-22.67-1.48,.26-2.96,.51-4.45,.77v21.9h12.19Zm-54.35,.12c-2.88-8.07-4.99-13.95-7.09-19.82l-2.52,.62v18.65c2.31,.13,4.21,.24,9.61,.56Zm58.13-294.6c.29-.32,.58-.64,.87-.95h-12.56c-.02,.32-.04,.64-.06,.95h11.75Z"/>
  <path class="cls-1" d="M782.37,204.31c-15.07-1.57-30.15-3.14-45.22-4.72-2.56-.27-5.12-.55-9.36-1.01,4.72,12.48,20.76,17.33,16.53,32.08-14.04-33.14-37.35-40.94-74.75-28.1-3.7-1.78-7.42-5.11-11.11-5.08-15.28,.15-30.55,1.54-45.83,1.95-4.4,.12-8.82-2-13.27-2.27-4.88-.29-9.81,.37-14.58,1.58-7.28-1.1-14.57-2.21-21.37-3.24-1.26,3.78-2.15,6.46-3.05,9.15-.31,.3-.61,.6-.91,.9-9.25-3.58-18.51-7.17-30.62-11.86h25.79c-74.04-87.42-194.24-115.16-299.63-70.04-99.64,42.66-163.86,149.59-152.83,254.5,12.21,116.13,101.9,213.03,218.95,235.92,98.29,19.22,203.49-34.24,250.69-111.72h-39.88c9.6-4.07,18.85-7.99,28.11-11.91l.54,.58v6.46c5.09,1.67,9.89,3.25,14.94,4.91,2.22-1.92,4.57-3.96,5.44-4.72h82.91c-2.19-11.91-16.07-21.75-9.03-36.36l.08-.08c1.07-1.34,2.14-2.68,3.21-4.02,.41,4.47,.77,8.95,1.25,13.42,2.21,20.51,11.25,28.31,33.18,28.67-1.46,1.24-2.92,2.48-4.39,3.73-1.8-.06-3.61-.12-5.41-.18-.86-.05-1.73-.09-2.59-.14-2.17,.03-4.34,.06-6.51,.1-23.24,.06-46.49,.13-69.73,.19-4.42,5.3-8.88,10.57-13.27,15.89-64.23,77.89-146.91,112.2-247.26,105.05-128.04-9.13-227.24-98.28-246.05-225.9C71.93,225.73,184.23,96.84,321.81,73.51c114.2-19.37,206.87,19.92,277.09,112.11,1.06,1.39,2.07,2.82,3.09,4.25,1,1.41,1.97,2.85,3.14,4.55,35.71,0,71.45-1.19,107.07,.42,23.49,1.07,46.8,6.18,70.19,9.47ZM121.28,242.8c-.4,.51-.8,1.02-.36,.45-.19,.71-.01,.04,.17-.63,.67-1.46,1.34-2.92,2-4.38,2.43-3.88,4.86-7.77,7.28-11.66,.82-1.32,1.65-2.65,2.46-3.97,.44-.91,.89-1.82,1.33-2.74,3.31-4.8,6.62-9.61,9.93-14.41-1.06-.66-2.11-1.32-3.17-1.98-2.87,4.96-5.75,9.93-8.62,14.89-.37,.92-.74,1.84-1.11,2.76-.71,1.41-1.41,2.82-2.12,4.23-1.94,4.34-3.88,8.68-5.82,13.02-.66,1.47-1.32,2.95-1.98,4.42Zm347.47,357.32c-1.1,.57-2.21,1.14-3.31,1.71-1.47,.29-2.94,.58-4.41,.87,.15,.46,.3,.93,.45,1.39,1.43-.6,2.85-1.2,4.28-1.81,2.11-.53,4.22-1.06,6.33-1.58,.66-.93,1.32-1.86,1.98-2.79,6.05-2.33,12.1-4.65,18.15-6.98,3.13-1.8,6.27-3.6,9.4-5.4,37.59-19.65,67.73-47.55,93.45-83.1-4.84,0-7.59-.06-10.33,.02-1.37,.04-2.72,.34-4.65,.61-20.84,32.63-48.22,59.09-80.58,80.52-3.03,1.82-6.05,3.63-9.08,5.45-5.41,3-10.82,6.01-16.23,9.01-1.82,.69-3.64,1.39-5.46,2.08ZM276.89,91.26c-.86,.57-1.65,1.31-2.59,1.67-50.47,19.29-90.92,51.6-122.89,94.86-3.55,4.81-6.49,10.08-9.71,15.13,.68,.72,1.35,1.44,2.03,2.16,52.63-67.99,121.04-106.39,207.02-108.66,86.64-2.28,157.45,32.31,213.05,97.61h32.92c-1.22-2.03-1.8-3.16-2.53-4.17-44.09-61.07-103.12-98.53-177.31-111.49-46.47-8.12-92-3-136.61,11.7-1.12,.4-2.25,.8-3.37,1.19Z"/>
  <path class="cls-1" d="M1165.38,745.53c11.74-9.13,15.01-22.8,18.46-36.58,1.75-6.99,3.9-14.17,7.48-20.32,3.99-6.86,10.94-9.58,19.09-7.08,7.98,2.45,11.87,8.16,12.76,16.24,1.78,16.25-5.06,25.02-23.79,29.41,2.18,3.65,4.2,7.04,6.56,10.99,20.91-2.88,24.87-20.27,31.17-36.82,5.32,12.95-4.6,31.94-18.54,39.53-11.74,6.4-22.86,2.24-33.13-12.17-3.77,5.7-6.78,12.41-11.74,17.01-3.53,3.27-10.49,6.08-14.45,4.74-3.99-1.35-8.77-8.16-8.64-12.44,.37-12.12,2.94-24.19,4.9-36.23,1-6.17,2.53-12.25,4.03-19.34h-12.07c-2.46,13.24-4.58,26.23-7.43,39.07-1.04,4.67-3.3,9.29-5.93,13.33-7.77,11.91-18.33,11.16-25.09-1.49-.95-1.77-1.73-3.63-1.37-2.87-6.76,4.27-13.67,12.3-19.77,11.72-12.95-1.23-12.11-14.75-14.34-26.07-5.02,7.91-9.2,14.49-14.1,22.21-5.32-1.43-10.14-2.73-15.47-4.17-1.82,4.5-3.78,9.96-6.21,15.2-2.94,6.35-7.02,11.37-15.11,10.63-8.57-.79-13.73-5.9-14.85-13.86-1.35-9.64-1.76-19.48-1.71-29.23,.06-10.7,1.13-21.39,.2-32.42-11.29,17.49-12.06,38.27-18.24,58.56-3.67-.91-6.78-1.69-10.07-2.51-.87-3.88-1.58-7.03-2.31-10.31-20.29,17.8-28.55,18.05-45.05,1.98-4.62,9.47-9.33,19.13-13.78,28.25-17.54-2.43-18.73-14.1-20.93-25.72-3.53,4.33-6.17,9.13-10.18,12.02-3.57,2.58-9.47,5.2-12.86,3.91-3.99-1.51-8.71-7.05-9.01-11.15-.66-8.9,.84-18.07,2.29-26.99,1.6-9.88,4.12-19.6,6.45-30.34h-11.85c-2.78,13.85-4.66,27.69-8.54,40.94-2.64,9-5.81,20.74-18.36,19.59-12.06-1.1-12.16-12.67-14.07-21.83-.21-.99-.59-1.94-1.21-3.89-4.55,7.14-8.69,13.63-14.42,22.62-5.59-3.38-12.55-5.16-14.89-9.46-6.9-12.68-2.37-25.21,4.54-36.66,5.82-9.64,14.6-12.56,25.47-8.76,1.49-2.76,2.84-5.28,4.81-8.94,4.05,1.89,7.55,3.52,10.46,4.87v55.87c15.91-15.38,18.32-34.23,18.24-53.82-.9,.33-1.79,.67-2.69,1-2.81-5.05-6.36-9.88-8.01-15.29-.55-1.82,3.75-5.11,7.41-9.72,4.22,6.95,6.99,11.5,9.83,16.18,33.36,.01,28.5,14.15,24.08,36.11-1.58,7.85-4.72,15.38-6.75,23.17-.89,3.41-.79,7.08-1.22,11.47,16.18-8.12,24.13-32.77,22.54-65.81-4.35-1.35-8.7-2.72-13.05-4.08,.23-.96,.46-1.92,.68-2.88h12.72v-26.04c5.32,1.42,9.22,2.46,13.6,3.62v19.53c8.68,.53,16.52,1.01,24.35,1.48,.01,1.37,.02,2.74,.03,4.12-7.92,.57-15.84,1.13-24.93,1.78,.43,25.4-4.86,50.19,1.47,75.24,9.14-12.83,12.07-27.51,14.63-42.43,1.1-6.45,2.62-13.13,5.58-18.87,4.15-8.06,11.05-12.54,20.86-9.74,9.73,2.78,12.83,10.1,13.11,19.2,.46,14.88-5.92,22.04-24.44,26.41,2.91,4.11,5.47,7.72,7.65,10.79,22.72-5.22,29.17-20.61,28.11-65.66,4.7,1.3,8.8,2.43,12.74,3.51v20.65c2.58-5.58,3.21-9.21,5.36-11.08,4.06-3.53,8.92-8.29,13.6-8.46,7.54-.28,13.24,5.11,13.14,13.46-.18,14-1.19,27.98-1.66,41.98-.24,7.03-.04,14.07-.04,21.1l4.2,1.17c2.53-3.28,6.17-6.2,7.39-9.92,3.14-9.57,4.97-19.57,7.79-29.26,2.22-7.63,4.18-15.59,7.97-22.45,5.21-9.41,14.16-11.87,24.98-8.3,1.36-2.62,2.66-5.13,4.54-8.75,4.04,1.76,7.58,3.3,10.63,4.63v58.62c18.38-17.05,14.75-37.99,18.84-58.8,5.16,1.99,9.41,3.63,13.02,5.02v50.73c1.21,.23,2.42,.47,3.63,.7,13.61-15,14.35-34.17,15.42-53.72-7.07-4.77-15.46-9-9.34-19.75,11.67-4.64,11.87,5.74,15.1,11.58,27.7,1.6,31.82,7.44,24.78,35.14-2.87,11.3-6.07,22.51-9.12,33.77,1.35,.53,2.69,1.06,4.04,1.6Zm-89.19-55.01c-14.59,.65-24.81,24.48-18.31,43.32,6.62-15.65,12.17-28.78,18.31-43.32Zm-271.75,40.36c5.4-13.08,10.81-26.16,16.72-40.47-13.94,2.07-22.64,22.17-16.72,40.47Zm404.72-42.4c-9.02,6.88-13.13,20.56-9.39,31.32,10.14-7.78,13.91-20.36,9.39-31.32Zm-267.53,32.04c11.59-7.57,15.8-21.17,10.65-33.16-8.85,9.31-10.93,20.06-10.65,33.16Z"/>
  <path class="cls-1" d="M1722.31,649.48c10.57-3.14,14.56-.62,14.16,9.64-.95,24.14-2.62,48.25-3.72,72.38-.42,9.39-.07,18.81-.07,29.66-4.09-.18-7.47-.33-11.89-.52v-44.39c-5.53,8.44-9.79,14.93-14.93,22.78-5.99-2.48-11.09-4.6-15.79-6.54-4.52,3.11-9.76,9.49-15.27,9.73-5.37,.23-11.02-5.81-16.13-8.85-3.9,8.09-8.56,17.75-13.13,27.24-21.06-3.73-19.19-19.13-20.95-32.49-9.34,5.74-17.91,11.27-26.73,16.37-9.87,5.71-21.37,.36-30.16-14.22-2.18,4.53-3.54,9.17-6.32,12.66-2.82,3.53-7.39,8.59-10.59,8.19-4.68-.59-11.06-4.55-12.73-8.69-3.45-8.52-4.26-18.1-5.97-26.37-2.19,6.15-4.86,13.63-7.34,20.59-12.52,2.8-17.06-4.03-20.29-14.22-5.35,9.8-9.99,18.3-13.49,24.71,3.86,6.41,10.03,11.97,9.45,16.7-1.04,8.45-4.78,17.47-10.02,24.19-4.12,5.29-11.05,1.26-13.5-4.25-2.63-5.91-4.82-12.77-4.52-19.09,1.02-21.29,3.18-42.52,5.02-63.77,.35-4.08,1.24-8.12-.48-13.03-3.45,7.45-6.91,14.9-10.34,22.37-3.06,6.67-5.27,13.94-9.44,19.8-2.58,3.63-8.56,7.58-12.26,6.95-4.46-.76-9.94-5.45-11.78-9.79-5.15-12.15,1.62-34.29,13.17-40.19,6.64-3.39,15.64-2.15,25.42-3.2,4.16-1.9,10.57-4.82,20.17-9.19,.4,8.03,1.22,12.22,.69,16.23-2.07,15.82-4.56,31.59-5.81,47.59,14.67-17.49,19.03-38.13,18.6-61.91,5.43,1.31,9.4,2.27,12.65,3.05v50.52c.99,.2,1.97,.4,2.96,.6,4.85-17.71,9.7-35.42,15.04-54.88,6.38,1.94,10.57,3.22,14.66,4.47-1.45,22.72-6.93,43.73-.04,67.99,3.74-6.05,6.82-9.38,8.02-13.29,3.17-10.33,5.53-20.91,8.2-31.39,1.37-5.41,2.16-11.04,4.16-16.21,4.77-12.33,9.87-15.06,19.39-14.04,24.44,13.9,24.92,33.53,19.97,54.87,16.27-6.23,16.01-19.8,16.52-48.57-4.39-1.08-8.81-2.17-13.24-3.26,.03-1.04,.05-2.09,.08-3.13,4.34-.49,8.67-.97,13.61-1.53v-24.41c4.71,.96,8.67,1.77,13.25,2.7v20.21c8.76,.44,16.58,.83,24.4,1.23,0,1.37-.01,2.73-.02,4.1-7.97,.61-15.94,1.21-23.72,1.81-4.47,34.56-4.23,64.57,3.13,76.08,3.45-11.38,7.62-22.61,10.15-34.19,2.6-11.91,3.6-24.16,5.58-38.29,4.58,1.27,8.71,2.42,13.11,3.64v53.42c10.37-5.8,12.26-14.27,14.55-22.41,1.32-4.69,1.81-9.68,3.57-14.17,6-15.26,12.82-19.05,31.02-17.25v-34.73Zm-124,34.98c-11.2,7.26-10.94,16.71-10.46,26.04,.43,8.39,2.61,16.03,11.66,20.99,3.03-16,5.25-30.56-1.21-47.03Zm-129.8,6.78c-15.07-1.32-25.76,21.13-19.33,42.21,6.99-15.27,12.95-28.28,19.33-42.21Zm236.61,41.86c6.29-15.33,11.66-28.44,17.38-42.41-13.76,1.22-23.48,24.46-17.38,42.41Zm-219.7,24.47v25.37c1.31,.24,2.62,.48,3.93,.71,2.27-7.96,4.53-15.93,7.19-25.27-5.5-.4-8.04-.59-11.12-.81Zm102.29-13.19c4.37-2.9,6.68-4.42,8.32-5.5-5.02-6.7-9.46-12.63-15.2-20.3,2.4,8.99,4.3,16.11,6.88,25.8Z"/>
  <path class="cls-1" d="M585.61,551v-9.84H1787.83c.17,3.06,.35,6.07,.56,9.84H585.61Z"/>
  <path class="cls-1" d="M1652.86,422.24c-.28-6.92-.8-13.84-.81-20.76-.08-51.59-.07-103.17-.03-154.76,0-3.08,.54-6.16,.83-9.24,.08-5.34,.15-10.67,.23-16,.66-1.37,1.32-2.74,1.99-4.11,.7-.01,1.4-.02,2.1-.03,0,67.7,0,135.39,0,202.72,23.02,4.61,43.93,2.66,65.14-1.25,0-24.9,0-47.97,0-71.03,0-7.5-3.91-10.63-11.17-10.62-3.58,0-7.16-.68-10.74-1.06,.1-.84,.2-1.69,.3-2.53,5.48-.35,10.95-.7,16.43-1.05-.22-.45-.44-.9-.66-1.35,4.75-2.89,9.5-5.78,14.26-8.67-.66,10.27-1.32,20.53-2.04,31.73,3.25,.75,5.8,1.34,8.34,1.92,.35,.37,.69,.74,1.06,1.14,.37-.39,.72-.76,1.08-1.13,.67,2.23,1.92,4.45,1.93,6.68,.13,29.2,.13,58.4,0,87.6-.01,2.22-1.29,4.43-1.98,6.65v-47.88c-.68,0-1.37,.02-2.05,.03v47.92c2.89,13.7,5.79,27.4,8.71,41.26h-103.47c11.39-8.27,12.94-17.79,9.17-28.68,.46-3.82,.93-7.64,1.39-11.46,0-12.01,0-24.02,0-36.03Zm85.7-45.05c-.32,0-.64,0-.97,0v10.48c.32,0,.64,0,.97,0v-10.48Z"/>
  <path class="cls-1" d="M647.54,728.63c-4.83,6.69-8.59,13.56-13.91,18.89-8.09,8.11-19.6,4.58-21.07-6.77-1.09-8.44,.3-17.37,1.62-25.92,1.64-10.61,4.36-21.05,6.81-32.5h-13.12c-3,27.28-4.37,54.82-20.86,78.4-19.9-4.21-18.29-19.02-20.33-32.29-8.21,4.96-16.45,9.52-24.26,14.74-10.57,7.07-25.46,2.93-30.29-10.16-6.77-18.37-5-36.53,5.56-53.35,4.7-7.5,11.83-7.69,18.54-5.36,21.01,13.32,20.91,32.86,16.46,53.71,16.57-5.42,16.6-22.47,16-48.11-4.31-1.27-8.64-2.55-12.96-3.83,.11-1.1,.21-2.2,.32-3.3,4.12-.23,8.23-.47,13.29-.75v-25c5.14,1.45,9.42,2.66,13.75,3.88v19.49c.72,.53,1.44,1.05,2.16,1.58,2.6-2.69,5.19-5.39,9.2-9.55,8.93-3.27,9.53,6.3,13.09,12.17,.44,.25,1.01,.85,1.59,.86,24.07,.35,29.27,6.66,24.06,30.25-2.11,9.55-5.35,18.85-7.85,28.32-.91,3.44-1.16,7.06-1.72,10.59,1.08,.57,2.16,1.14,3.24,1.71,3.61-4.64,8.24-8.81,10.59-14.02,3.41-7.55,5.24-15.83,7.59-23.83,.79-2.68,.94-5.54,1.71-8.23,3.54-12.38,12.35-20.35,21.55-19.64,8.92,.69,15.49,7.71,16.41,17.55,1.35,14.41-4.65,24.12-17.07,27.49-1.98,.54-4.05,.7-7.45,1.27,2.95,4.24,5.39,7.75,7.96,11.44,20.15-3.88,24.23-20.69,30.7-37.02,4.78,14.27-5.95,33.72-19.98,40.14-11.86,5.43-22.96,.88-31.32-12.86Zm-117.48-15.13c2.8,5.98,5.59,11.96,8.39,17.93,1.11-.35,2.22-.71,3.33-1.06,3.24-14.75,6.04-29.48-1.02-43.94-1.12-.34-2.23-.68-3.35-1.03-2.42,4.54-4.83,9.09-7.25,13.63-.03,4.82-.06,9.64-.1,14.46Zm52.8-38.46c-1.02,28.25-4.28,52.96-.4,79.56,11.14-12.98,19.36-47.58,18.18-73.07-4.91-1.79-10.3-3.76-17.79-6.49Zm87.54,10.83c-8.23,11.38-12.18,21.51-10.41,34.07,10.52-6.14,14.75-18.62,10.41-34.07Zm-140.22,58.83c4.44-3.25,6.67-4.89,8.03-5.89-4.83-6.64-9.06-12.44-15.03-20.65,2.58,9.78,4.45,16.88,7,26.54Z"/>
  <path class="cls-1" d="M1079.24,195c-8.29,.46-16.58,1.24-24.87,1.3-23.27,.18-46.54,.06-69.81,.06-.05,1.16-.1,2.32-.15,3.49h66.16c.02,1.4,.03,2.81,.05,4.21h-59.44c2.21,17.42,5.77,33.08,5.9,48.76,.62,71.03,.43,142.08,.06,213.12-.04,8.05-3.03,16.08-4.89,25.25-1.66,1.37-4.18,3.46-8.49,7.03h102.89c-4.17-2.95-6.49-4.59-9.42-6.66,0-11.43,0-22.95,0-34.46,1.38-2.72,3.93-5.42,3.96-8.15,.29-28.65,.21-57.3,.11-85.94,0-1.92-1.03-3.84-1.57-5.76-.85,.11-1.7,.23-2.55,.34v38.45c-1.39,3.08-3.82,6.1-3.99,9.25-.53,9.74-.19,19.54-.19,29.31-1.11,.03-2.23,.05-3.34,.08-.27-2.84-.75-5.68-.77-8.52-.09-11.55-.5-23.13,.07-34.65,1.06-21.34,2.63-42.66,4.29-63.97,.14-1.76,2.59-3.35,3.97-5.02,1.39-2.36,3.93-4.69,3.98-7.07,.33-18.15,.22-36.31,.08-54.46-.01-1.58-1.21-3.14-1.85-4.71-.75,.12-1.51,.23-2.26,.35v32.16c-1.37-2.35-3.9-4.69-3.94-7.07-.32-19.84-.18-39.68-.18-59.49,6.23-8.15,17.4-14.28,10.58-27.21,2.8-.01,5.6-.02,8.4-.03,2.01,4.73,4.04,4.71,6.07,.01h128.36c6.41,20.21,12.99,40.97,19.57,61.74-.71,.49-1.42,.97-2.13,1.46-2.02-2.71-4.09-5.38-6.04-8.13-34.14-48.23-82.83-58.03-134.35-51.03-9.39,1.28-15.63,8.08-17.61,17.37-1.67,7.81-2.67,15.9-2.75,23.88-.34,34.31-.23,68.62-.25,102.93,0,1.32,.37,2.64,.69,4.85h16.83c0,.53-.02,1.06-.04,1.59h-15.92c-.6,1.59-1.49,2.85-1.49,4.1,.1,37.5-.28,75.01,.86,112.48,.27,8.79,3.96,18.77,9.34,25.67,3.67,4.71,12.99,5,19.78,7.27-.14,1.29-.29,2.58-.43,3.86-3.41-.09-6.82-.18-10.22-.27-11.51-.27-23.02-.82-34.53-.76-31.82,.14-63.63,.54-95.45,.83-3.43,.07-6.85,.14-10.28,.21-.14-1.29-.29-2.58-.43-3.88,18.64-1.11,27.26-9.19,29.06-27.69,.61-6.26,.68-12.59,.68-18.89,.05-70.03,.04-140.07,.02-210.1,0-4.2-.11-8.4-.36-12.6-1.27-21.95-8.52-29.63-30.41-32.41-1.51-.19-3-.61-4.22-2.48h122.85Z"/>
  <path class="cls-1" d="M1657.17,217.33c-.7,.01-1.4,.02-2.1,.03-.66,1.37-1.32,2.74-1.99,4.11-.08,5.33-.15,10.67-.23,16-.66-5.39-1.32-10.77-1.98-16.16-.33-1.23-.66-2.46-.99-3.69-5.07-16.59-18.13-20.66-33.36-22.31h270.39c6.34,20.19,12.9,41.11,19.38,61.74-13.46-13.06-25.39-27.26-39.83-38.12-30.1-22.65-65.35-24.49-101.22-20.18-10.34,1.24-17.1,8.2-19.26,18.34-1.67,7.81-2.55,15.92-2.65,23.91-.45,34.99-.48,69.99-.67,104.98-.18,.24-.54,.65-.51,.69,.4,.42,.87,.79,1.31,1.17,18.4,.71,36.28-1.66,53.13-9.53,21.6-10.09,31.58-22.31,39.38-46.39v114.18c-8.31-36.51-36.35-48.09-67.88-55.46-2.9-.35-5.8-.7-8.71-1.05-5.28,.23-10.56,.46-15.84,.69,0,0,.14-.32,.14-.32-.02,39.23-.71,78.47,.21,117.68,.53,22.39,8.18,28.95,30.69,31.9,1.63,.21,3.07,1.86,4.61,2.84-1.57,.21-3.14,.42-4.72,.63-5.52-.08-11.05-.17-16.57-.25-5.56-.27-11.13-.79-16.69-.76-35.67,.19-71.35,.5-107.02,.76-3.05,.1-6.09,.19-9.14,.29,.1-1.35,.19-2.7,.28-4.06,17.22-2.63,22.7-8.77,26.13-29.27,3.78,10.89,2.22,20.4-9.17,28.68h103.47c-2.93-13.86-5.82-27.56-8.71-41.26,.68-.02,1.37-.05,2.05-.07,.69-2.22,1.97-4.43,1.98-6.65,.13-29.2,.13-58.4,0-87.6-.01-2.23-1.26-4.45-1.93-6.68,0,0-.04-.04-.04-.04-.7-5.6-1.39-11.2-2.09-16.81,0-5.6,0-11.2,0-16.79h0c.69,0,1.38-.01,2.07-.03,.69-3.25,1.93-6.48,1.97-9.74,.21-15.24,.24-30.48,0-45.71-.06-3.95-1.29-7.88-1.98-11.81-.69-.02-1.38-.03-2.07-.03h0c0-1.39-.01-2.78-.02-4.17,1.38-9.83,2.76-19.65,4.14-29.48,0-1.38,0-2.77-.01-4.15,.02-1.41,.04-2.83,.06-4.24h.01c1.41-4.21,2.82-8.42,4.23-12.63,.01-.69,.02-1.38,.02-2.07l.6-1.45c-.93,.47-1.85,.94-2.78,1.41-.68,0-1.35-.01-2.03-.01-2.23-.67-4.45-1.92-6.68-1.93-25.69-.14-51.38-.13-77.07,0-2.22,.01-4.43,1.28-6.65,1.96-.04,.68-.06,1.35-.05,2.03-.69,.72-1.38,1.45-2.07,2.17,0,.7,0,1.4,.03,2.1,.3,1.04,.59,2.09,.92,3.22,1.48-.49,2.36-.79,3.25-1.08h0c.68,.71,1.35,1.43,2.03,2.15,.72,1.39,1.43,2.77,2.15,4.16,0,1.39,.02,2.78,.03,4.16h0Z"/>
  <path class="cls-1" d="M1745.39,679.82c6.79,2.38,10.69,3.74,14.71,5.15v51.01c.91,.39,1.82,.78,2.73,1.17,2.47-2.89,5.87-5.4,7.22-8.73,2.87-7.09,4.28-14.76,7.02-21.91,2.69-7.05,4.98-14.89,9.76-20.36,9.13-10.43,24.78-5.63,28.7,7.88,4.77,16.42-3.12,28.14-23.25,33.37,2.31,3.61,4.45,6.97,6.26,9.81,21.88-1.07,28.06-15.09,29.03-64.75,4.3,1.07,8.23,2.05,12.41,3.09v19.24c3.62-6.05,6.22-10.83,9.29-15.29,1.09-1.59,3.34-2.38,4.79-3.34,14.85,2.02,18.4,5.47,18.13,19.37-.26,13.65-1.62,27.27-2.11,40.92-.2,5.65,.59,11.34,1.07,19.23,12.1-6.7,13.34-16.7,15.84-25.67,2.45-8.8,4.15-17.8,6.21-26.89,2.24,.86,3.42,1.09,3.42,1.35,.43,17.85-3.77,34.7-13.29,49.67-2.16,3.4-9.45,6.22-13.27,5.19-4.91-1.33-11.42-6.19-12.42-10.62-2.42-10.74-2.52-22.11-2.65-33.24-.12-10.24,.95-20.5,1.5-30.76-1.5-.3-3.01-.6-4.51-.89-5.07,19.46-10.15,38.92-15.51,59.49-3.62-1.07-6.74-1.99-9.92-2.93-.68-3.73-1.22-6.65-1.77-9.63-21.2,18.2-32.46,17.6-46.5-2.43-.5,.3-1.21,.47-1.47,.91-4.12,6.86-7.4,15.44-17.63,13.52-10.67-2.01-12.97-11.39-13.56-20.09-.9-13.13-.23-26.37-.23-42.82Zm121.89,65.82c0-18.65,.19-36.66-.22-54.64-.05-2.37-3.15-4.67-4.84-7-.86,.64-1.73,1.28-2.59,1.92v60.27c1.71,.38,2.72,.81,3.71,.76,.96-.05,1.9-.6,3.94-1.3Zm-64.7-56.96c-9.51,6.13-13.49,19.2-9.39,30.82,9.54-7.52,12.89-18.51,9.39-30.82Z"/>
  <path class="cls-1" d="M1303.15,684.83c1.15-3.04,1.96-5.19,3.31-8.77,4.37,1.75,8.19,3.27,10.88,4.35v55.71c1.06,.2,2.11,.39,3.17,.59,15.67-16.13,13.4-38.09,16.36-60.44,5.16,1.68,9.23,3,12.03,3.91v49.76c.95,.23,1.9,.45,2.85,.68,4.78-17.62,9.55-35.23,14.79-54.56,6.28,1.73,10.53,2.91,14.89,4.11-1.54,22.63-6.97,43.65-.39,67.62,12.63-13.75,12.37-30.55,18.26-45.75,5.97,10.99-2.84,38.86-14.07,49.11-14.63,.49-17.99-4.31-21.96-33-3.31,7.34-5.97,13.22-9.95,22.05-6.97-4.45-12.71-8.12-17.18-10.97-5.65,3.98-13,13.43-19.61,12.93-13.68-1.03-11.58-15.85-14.66-26.12-4.45,7.37-8.68,14.39-14.46,23.97-5.92-3.74-12.82-5.65-15.08-9.99-6.66-12.72-2.21-25.19,4.81-36.63,5.96-9.7,14.8-12.19,26-8.54Zm1.14,5.94c-13.86,1.08-23.48,23.5-17.82,42.55,6.51-15.54,11.98-28.6,17.82-42.55Zm58.52,26.33c.43,.02,.87,.05,1.3,.07v-4.56c-.28-.02-.57-.03-.85-.05-.15,1.51-.3,3.02-.45,4.54Z"/>
  <path class="cls-1" d="M1395.32,505.36c-19.7-2.95-39.38-5.99-59.1-8.78-4.82-.68-9.8-1.09-14.64-.74-13.47,.97-20.3,9.06-23.04,21.97v-110.74c14.19,55.92,50.74,86.95,106.61,96.71-3.28,.53-6.55,1.06-9.82,1.58Z"/>
  <path class="cls-1" d="M742.9,736.73v52.17h-13.1c1.17-37.99,2.3-74.85,3.49-113.47,4.17,.96,8.08,1.85,12.7,2.91v20.62c.59,.15,1.17,.3,1.76,.46,2.6-4.3,4.36-9.64,8.03-12.63,3.79-3.1,9.98-6.15,14.11-5.13,4.28,1.05,9.79,6.61,10.51,10.91,2.19,13.05-.57,25.88-8.5,36.85-7,9.69-16.8,11.61-29,7.32Zm21.87-52.25c-13.01,14.52-16.24,31.23-21.29,47.85,16.92-1.3,28.58-27.01,21.29-47.85Z"/>
  <path class="cls-1" d="M489.47,649.79c8.72,.78,11.63,6.18,10.78,12.46-3.24,23.8-7.08,47.53-11.06,71.22-.61,3.63-2.43,7.7-5.01,10.22-3.76,3.67-9.26,9.06-13.01,8.35-5.16-.97-12.01-6.13-13.5-10.93-4.1-13.22-6.18-27.12-8.33-40.87-2.3-14.75-3.77-29.63-5.62-44.63,10.38-2.42,15.11,.16,16.44,11.71,2.25,19.44,3.53,39,5.75,58.44,.79,6.93,3.17,13.67,4.96,21.08,16.41-9.1,22.59-44.76,18.6-97.05Z"/>
  <path class="cls-1" d="M744.56,432.35c5.76,7.99,11.04,16.41,17.42,23.87,7.62,8.89,16.03,17.13,24.39,25.36,13.24,13.04,30.97,11.57,47.35,13.59,20.93,2.58,42.01,3.85,63.03,5.69,.59-1.58,1.18-3.16,1.78-4.73-3.44-2.5-6.87-5-10.58-7.69-4.16-2.64-8.53-5.43-12.91-8.21,.85-.7,1.69-1.4,2.54-2.1-4.64-4.89-9.28-9.78-13.92-14.67-1.35,1.27-2.71,2.54-4.06,3.8-.52-2.71-1.04-5.42-1.66-8.68-2.17-.96-4.62-2.05-7.07-3.15,.54-.43,1.08-.86,1.62-1.29-2.98-4.75-6.16-9.4-8.89-14.29-3.09-5.53-5.45-11.48-8.7-16.9-4.97-8.29-10.59-16.19-15.59-24.47-1.5-2.49-1.84-5.67-2.71-8.54,9.49,14.15,18.63,28.54,28.57,42.37,9.95,13.85,19.78,27.96,31.29,40.46,15.06,16.35,33.88,26.73,57.17,27.04-.58,1.21-.87,2.31-1.14,2.31-36.26-.66-72.59-.3-108.77-2.41-42.55-2.47-65.67-29.71-79.16-67.37Z"/>
  <path class="cls-1" d="M1405.04,200.06c-5.47-.68-11.07-2.47-16.38-1.81-9.55,1.18-18.92,3.81-28.37,5.84,5.26-1.85,10.52-3.71,15.77-5.56,1.91-.55,3.82-1.1,5.72-1.65,34.04-9.19,68.21-9.54,102.53-1.59,11.9,2.76,23.77,5.75,35.78,7.86,19.03,3.35,25.56-1.77,28.01-20.78,.15-1.17,.82-2.27,2.86-3.17v111.76c-2.59-31.39-16-57.17-40.22-77.31,3.35,1.28,7.85,1.6,9.85,4.01,9.38,11.29,18.08,23.14,26.32,33.88v-45.08c-7.2,.72-13.81,1.38-17.78,1.77-8.12-1.66-13.84-2.82-20.63-4.21,.77,4.48,1.17,6.83,1.58,9.17-26.1-16.39-54.37-23.38-85.02-18.95-6.81,.98-13.35,3.83-20.02,5.82Z"/>
  <path class="cls-1" d="M1100.38,349.65c.02-.53,.03-1.06,.04-1.59,8.33-1.62,16.66-3.24,24.99-4.86,8,1.04,15.97,2.03,18.85-8.42,0,0-.13,.09-.12,.09,2.95-.13,5.9-.27,9.24-.42,.67-3.01,1.17-5.25,1.66-7.48,.73-.66,1.46-1.32,2.19-1.98,3.62-1.71,7.24-3.43,12.5-5.91,1.37,3.87,3.84,7.74,3.95,11.69,.46,16.07,.44,32.17,0,48.25-.08,3.04-2.9,6.01-4.45,9.01,0,0,.08,.12,.08,.11,0-3.04,0-6.07,0-10.84-3.57-1.24-7.4-2.57-11.23-3.91-16.67-14.15-36.48-20.65-57.69-23.74Z"/>
  <path class="cls-1" d="M1366.86,360.61h11.51c-.24,.52-.48,1.03-.71,1.55,18.72,8.05,37.45,16.11,47.65,20.5,32.04,18.56,59.92,27.01,71.72,56.41v37.85c-5.73,6.95-11.11,13.49-16.54,20.08,14.19-2.23,26.38-4.15,38.57-6.07-10.98,3.36-21.95,6.72-32.93,10.08-1.73,.39-3.47,.78-5.2,1.16-7.35,1.06-14.69,2.13-22.04,3.19-2.99,.17-5.98,.34-8.98,.51-2.42,.28-4.84,.57-7.25,.85,0-.91-.02-1.81-.03-2.72,9.89-3.19,20.52-4.99,29.52-9.83,23.28-12.52,29.1-38.61,14.92-60.98-10.93-17.24-27.64-27.41-45.12-36.22-20.84-10.5-42.21-19.93-63.31-29.92-4.04-1.91-7.86-4.28-11.79-6.43Z"/>
  <path class="cls-1" d="M1157.13,499.21c35.9-.45,63.02-18.51,86.15-43.82,8.59-9.4,15.77-20.1,25.61-29.46-7.84,25.28-15.69,50.56-23.53,75.84-25.44,.38-50.88,.75-76.31,1.13-3.82,.03-7.64,.05-11.46,.08-.15-1.25-.31-2.51-.46-3.76Zm71.58-21.43c-11.83,7.22-20.61,12.58-29.39,17.94,.5,.91,1.01,1.82,1.51,2.73h39.58c-.03-15.4,14.55-26.21,12.1-43.55-9.85,9.47-18.25,17.54-23.8,22.88Z"/>
  <path class="cls-1" d="M1510.08,213.2c-.4-2.34-.81-4.69-1.58-9.17,6.79,1.38,12.51,2.55,20.63,4.21,3.97-.4,10.58-1.06,17.78-1.77v45.08c-8.24-10.74-16.93-22.6-26.32-33.88-2-2.41-6.5-2.73-9.85-4.01,0,0-.67-.45-.67-.45Z"/>
  <path class="cls-1" d="M1360.3,204.02c-7.43,5.83-15.67,10.9-22.12,17.67-11.6,12.17-27.24,21.67-29.84,40.52-1.58,11.43-3,22.88-4.5,34.33-7.76-25.89-1.66-49.04,17.46-67.06,11.13-10.48,25.89-17.11,39.01-25.47Z"/>
  <path class="cls-1" d="M1169.22,388.02c1.55-3,4.37-5.97,4.45-9.01,.44-16.07,.47-32.17,0-48.25-.11-3.94-2.58-7.82-3.95-11.69-5.26,2.49-8.88,4.2-12.5,5.91,6.48-10.67,12.95-21.34,18.53-30.53v111.35c-.4,.11-.8,.21-1.19,.32-1.78-6.03-3.56-12.07-5.34-18.1Z"/>
  <path class="cls-1" d="M711.59,345.77c-3.76,1.12-7.51,2.25-11.76,3.51,8.86,6.61,19.43,11.33,19.63,24.25-12.74-19.43-30.78-27.67-53.72-25.15-2.83,.31-5.52,1.93-8.27,2.94,.46-1.89,.91-3.79,1.37-5.69,17.58,.05,35.17,.09,52.75,.14Z"/>
  <path class="cls-1" d="M1670.22,668.77c-5.22-2.24-8.21-3.52-11.51-4.93v-16.61c5.02,.88,8.88,1.55,14.56,2.54-1.03,6.42-1.92,11.96-3.05,19Z"/>
  <path class="cls-1" d="M719.39,373.44c3.03,3.45,6.94,6.45,8.92,10.42,5.12,10.29,9.84,20.84,13.79,31.62,1.92,5.26,1.77,11.27,2.55,16.95-8.42-19.66-16.84-39.33-25.26-58.99Z"/>
  <path class="cls-1" d="M1106.24,663.9v-16.45c5.14,.82,9.24,1.48,14.82,2.38-.87,6.48-1.57,11.66-2.51,18.62-5.25-1.94-8.56-3.16-12.31-4.54Z"/>
  <path class="cls-1" d="M1744.77,662.85c.28-5.82,.48-9.88,.76-15.63,5.25,1,9.58,1.83,15.15,2.89-1.14,6.64-2.01,11.74-3.21,18.69-5.45-2.55-8.92-4.17-12.71-5.95Z"/>
  <path class="cls-1" d="M972.32,502.83c31.82-.29,63.63-.69,95.45-.83,11.51-.05,23.02,.49,34.53,.76-15.93,.32-31.85,.92-47.78,.89-27.4-.06-54.8-.52-82.2-.82Z"/>
  <path class="cls-1" d="M1634.19,502.76c35.67-.27,71.35-.58,107.02-.76,5.56-.03,11.13,.49,16.69,.76-26.7,.32-53.4,.79-80.1,.88-14.54,.05-29.07-.56-43.61-.88Z"/>
  <path class="cls-1" d="M1157.13,499.21c.15,1.25,.31,2.51,.46,3.76-15.02,.02-30.05,.04-45.07,.06,.14-1.29,.29-2.58,.43-3.86,14.73,.01,29.45,.03,44.18,.04Z"/>
  <path class="cls-1" d="M1442.63,504c.01,.91,.02,1.81,.03,2.72-15.78-.45-31.57-.9-47.34-1.36,3.28-.53,6.55-1.06,9.83-1.58,12.5,.07,24.99,.15,37.49,.22Z"/>
  <path class="cls-1" d="M1169.05,502.89c25.44-.38,50.88-.75,76.31-1.13-1.51,.64-3.02,1.85-4.53,1.84-23.93-.15-47.86-.45-71.79-.71Z"/>
  <path class="cls-1" d="M603.9,503c23.24-.06,46.49-.13,69.73-.19-23.24,.06-46.49,.13-69.73,.19Z"/>
  <path class="cls-1" d="M1303.8,297.23c4.26,5,8.51,10,12.9,15.15,0,3.48,0,6.94,0,10.39-4.3-8.51-8.6-17.03-12.9-25.54Z"/>
  <path class="cls-1" d="M804.6,212.6c-7.19-2.71-14.38-5.42-21.58-8.13,7.19,2.71,14.38,5.42,21.58,8.13Z"/>
  <path class="cls-1" d="M1144.26,334.79c-2.88,10.45-10.86,9.45-18.85,8.42,6.28-2.81,12.57-5.61,18.85-8.42Z"/>
  <path class="cls-1" d="M1158.07,373.39c3.83,1.33,7.66,2.67,11.23,3.91,0,4.77,0,7.8,0,10.84-3.74-4.91-7.49-9.83-11.23-14.74Z"/>
  <path class="cls-1" d="M819.6,221.33c-3.02,0-6.04,0-10.28,0-1.48-2.72-3.13-5.76-4.78-8.81,5.02,2.94,10.04,5.87,15.06,8.81Z"/>
  <path class="cls-1" d="M1652.86,422.24c0,12.01,0,24.02,0,36.03,0-12.01,0-24.02,0-36.03Z"/>
  <path class="cls-1" d="M1155.04,326.97c-.5,2.23-.99,4.47-1.66,7.48-3.34,.15-6.29,.29-9.24,.42,3.63-2.63,7.27-5.27,10.9-7.9Z"/>
  <path class="cls-1" d="M1625.34,499c-.09,1.35-.19,2.7-.28,4.06h-9.89c0-1.19-.01-2.37-.02-3.56,3.4-.17,6.8-.33,10.2-.5Z"/>
  <path class="cls-1" d="M1360.13,357.13c2.28,1.18,4.57,2.37,6.85,3.55-2.28-1.18-4.57-2.37-6.85-3.55Z"/>
  <path class="cls-1" d="M1098.09,194.99c-2.03,4.7-4.06,4.71-6.07-.01,2.02,0,4.05,0,6.07,.01Z"/>
  <path class="cls-1" d="M1449.91,505.86c2.99-.17,5.99-.34,8.98-.51-3,.17-5.99,.34-8.98,.51Z"/>
  <path class="cls-1" d="M1759.39,349.6c2.9,.35,5.81,.7,8.71,1.05-2.9-.35-5.81-.7-8.71-1.05Z"/>
  <path class="cls-1" d="M1354.91,354.01c1.73,1.04,3.47,2.08,5.2,3.12-1.73-1.04-3.47-2.08-5.2-3.12Z"/>
  <path class="cls-1" d="M1381.79,196.88c-1.91,.55-3.82,1.1-5.72,1.65,1.91-.55,3.82-1.1,5.72-1.65Z"/>
  <path class="cls-1" d="M1480.93,502.16c1.74-.39,3.47-.78,5.2-1.16-1.74,.39-3.47,.78-5.2,1.16Z"/>
  <path class="cls-1" d="M1743.46,347.85c-.45-.38-.91-.75-1.31-1.17-.04-.04,.33-.45,.51-.69,.27,.62,.54,1.24,.81,1.86Z"/>
  <path class="cls-1" d="M1649.88,217.63c.33,1.23,.66,2.46,.99,3.69-.33-1.23-.66-2.46-.99-3.69Z"/>
  <path class="cls-1" d="M1774.47,503.02c1.57-.21,3.15-.42,4.72-.63-1.57,.21-3.14,.42-4.72,.63Z"/>
  <path class="cls-1" d="M680.14,502.71c.86,.05,1.73,.1,2.59,.14-.86-.05-1.73-.1-2.59-.14Z"/>
  <path class="cls-1" d="M1743.69,349.97s-.14,.32-.14,.32c0,0,.14-.32,.14-.32Z"/>
  <path class="cls-1" d="M560.37,204.67c2.75,1.93,5.5,3.86,8.39,5.88,0,29.76,0,58.94,0,88.13,0,48.96-.08,97.93,.13,146.89,.02,4.25,2.13,8.44,2.83,12.74,.6,3.71,1.36,7.67,.66,11.26-1.22,6.31-3.49,12.42-5.77,20.18-.87,.18-3.46,.74-6.05,1.29,0,0-.54-.57-.54-.57,2.25-9.04,6.38-18.07,6.44-27.13,.52-76.58,.54-153.17-.04-229.76-.07-9.35-4.54-18.67-6.97-28,.3-.3,.61-.6,.91-.9Z"/>
  <path class="cls-1" d="M665.3,206.87c-2.38,10.46-4.76,20.93-7.14,31.39-.56-8.98-1.12-17.97-1.73-27.74,3.35-1.38,6.11-2.52,8.87-3.65Z"/>
  <path class="cls-1" d="M653.25,448.29v-24.67c.35,0,.7,0,1.04,0v24.45c-.35,.08-.7,.16-1.04,.23Z"/>
  <path class="cls-1" d="M654.25,351.42v3.14h-.88v-3.14h.88Z"/>
  <path class="cls-1" d="M669.49,202.63c-1.22,1.15-2.45,2.3-3.67,3.46,1.22-1.15,2.45-2.3,3.67-3.46Z"/>
  <path class="cls-1" d="M657.83,337.38c.62,.6,.6,1.19-.04,1.76,0,0-.5-.89-.5-.89l.54-.87Z"/>
  <path class="cls-1" d="M654.81,461.33c-.28-.17-.56-.35-.84-.52,.31,.15,.62,.29,.92,.44,0,0-.08,.08-.08,.08Z"/>
  <path class="cls-1" d="M749.41,248.96c-1.68-6.09-3.36-12.17-5.04-18.26,1.68,1.91,4.39,3.61,4.81,5.76,.78,4.03,.23,8.32,.23,12.5Z"/>
  <path class="cls-1" d="M1077.18,396.04v-38.45c.85-.11,1.7-.23,2.55-.34,.55,1.92,1.57,3.84,1.57,5.76,.1,28.65,.18,57.3-.11,85.94-.03,2.73-2.58,5.44-3.96,8.15-.02-20.36-.04-40.71-.06-61.07Z"/>
  <path class="cls-1" d="M1077.17,288.78v-32.16c.75-.12,1.51-.23,2.26-.35,.65,1.57,1.84,3.14,1.85,4.71,.14,18.15,.25,36.31-.08,54.46-.04,2.38-2.59,4.71-3.98,7.07-.02-11.24-.03-22.49-.05-33.73Z"/>
  <path class="cls-1" d="M1070.46,494.44h-12.19v-21.9c1.48-.26,2.96-.51,4.45-.77,2.37,6.95,4.75,13.91,7.74,22.67Z"/>
  <path class="cls-1" d="M1016.12,494.56c-5.4-.31-7.3-.42-9.61-.56v-18.65l2.52-.62c2.1,5.88,4.2,11.75,7.09,19.82Z"/>
  <path class="cls-1" d="M1074.24,199.96h-11.75c.02-.32,.04-.64,.06-.95h12.56c-.29,.32-.58,.64-.87,.95Z"/>
  <path class="cls-1" d="M474.07,597.9s.14,.14,.14,.14c5.41-3,10.82-6.01,16.23-9.01"/>
  <path class="cls-1" d="M472.08,600.69c-2.11,.53-4.22,1.06-6.33,1.58l-.31-.45c1.1-.57,2.21-1.14,3.31-1.71,1.11,.19,2.22,.38,3.33,.57Z"/>
  <path class="cls-1" d="M465.75,602.28c-1.43,.6-2.85,1.2-4.28,1.81-.15-.46-.3-.93-.45-1.39,1.47-.29,2.94-.58,4.41-.87,0,0,.31,.45,.31,.45Z"/>
  <path class="cls-1" d="M280.26,90.07c-1.12,.4-2.25,.8-3.37,1.19,1.12-.4,2.25-.8,3.37-1.19Z"/>
  <path class="cls-1" d="M468.75,600.12c1.82-.69,3.64-1.39,5.46-2.08,0,0-.14-.14-.14-.14"/>
  <path class="cls-1" d="M1737.03,251.01c0,1.39,.01,2.78,.02,4.17-2.1,2.28-5.77,4.39-6.03,6.86-1.29,12.51-2.08,25.11-2.25,37.69-.1,7.58,1.25,15.18,1.95,22.77-4.75,2.89-9.5,5.78-14.26,8.67,.22,.45,.44,.9,.66,1.35-5.48,.35-10.95,.7-16.43,1.05-.1,.84-.2,1.69-.3,2.53,3.58,.37,7.16,1.06,10.74,1.06,7.26-.02,11.18,3.12,11.17,10.62-.01,23.07,0,46.14,0,71.03-21.22,3.91-42.12,5.86-65.14,1.25,0-67.33,0-135.02,0-202.72,0,0,0,0,0,0,28,.01,56,.03,83.99,.04,0,1.38,0,2.77,.01,4.15-1.38,2.65-3.73,5.23-3.95,7.97-.56,7.13-.19,14.34-.19,21.51Zm-9.46-28.04c-.62,.02-1.23,.04-1.85,.06v16.07c.62-.02,1.23-.03,1.85-.05v-16.08Z"/>
  <path class="cls-1" d="M1737.04,322.51c0,5.6,0,11.2,0,16.79,0,5.61,0,11.23,0,16.84-2.55-.59-5.09-1.17-8.34-1.92,.72-11.19,1.38-21.46,2.04-31.73,2.11,0,4.21,0,6.32,.01Z"/>
  <path class="cls-1" d="M1739.11,457.07c-.68,.02-1.37,.04-2.05,.07,0-15.97,0-31.94,0-47.91,.68,0,1.37-.02,2.05-.03v47.88Z"/>
  <path class="cls-1" d="M1738.56,377.19v10.48c-.32,0-.64,0-.97,0v-10.48c.32,0,.64,0,.97,0Z"/>
  <path class="cls-1" d="M1653.08,221.48c.66-1.37,1.32-2.74,1.99-4.11-.66,1.37-1.32,2.74-1.99,4.11Z"/>
  <path class="cls-1" d="M1739.16,356.15c-.35,.37-.7,.74-1.08,1.13-.36-.39-.71-.76-1.06-1.14,.7,0,1.39,0,2.09-.03,0,0,.04,.04,.04,.04Z"/>
  <path class="cls-1" d="M530.16,699.04c-.03,4.82-.06,9.64-.1,14.46,.03-4.82,.06-9.64,.1-14.46Z"/>
  <path class="cls-1" d="M1741.27,198.39c.68,0,1.35,0,2.03,.02,.72,.01,1.45,.02,2.17,.04,0,.69,0,1.38-.02,2.07-1.41,4.21-2.82,8.41-4.23,12.62,0,0-.01,0-.01,0-28.03,.01-56.05,.02-84.08,.04-.72-1.39-1.43-2.77-2.15-4.16-.68-.72-1.35-1.44-2.03-2.16,0,0,0,0,0,0-1.39-.71-2.78-1.43-4.16-2.14-.02-.7-.03-1.4-.03-2.1,.69-.72,1.38-1.45,2.07-2.17,0-.68,.01-1.35,.05-2.03,30.13-.01,60.26-.03,90.39-.04Z"/>
  <path class="cls-1" d="M1737.04,322.51c-2.11,0-4.21,0-6.32-.01-.7-7.59-2.05-15.19-1.95-22.77,.17-12.58,.96-25.18,2.25-37.69,.25-2.47,3.93-4.58,6.03-6.86,0,0,0,0,0,0,0,5.49,0,10.99,0,16.48,.69-.02,1.38-.03,2.07-.05v-16.4c.69,3.94,1.92,7.87,1.98,11.81,.23,15.24,.21,30.48,0,45.71-.05,3.25-1.29,6.49-1.97,9.74,0-11.06,0-22.12,0-33.18-.69,.01-1.38,.03-2.07,.04v33.18h0Z"/>
  <path class="cls-1" d="M1657.14,213.17c28.03-.01,56.05-.02,84.08-.04-.02,1.41-.04,2.83-.06,4.24-28-.01-56-.03-83.99-.04,0-1.39-.02-2.78-.03-4.17Z"/>
  <path class="cls-1" d="M1741.27,198.39c-30.13,.01-60.26,.03-90.39,.04,2.22-.68,4.43-1.95,6.65-1.96,25.69-.14,51.38-.14,77.07,0,2.23,.01,4.45,1.26,6.68,1.93Z"/>
  <path class="cls-1" d="M1737.03,251.01c0-7.18-.38-14.38,.19-21.51,.22-2.74,2.57-5.32,3.95-7.97-1.38,9.83-2.76,19.65-4.14,29.48Z"/>
  <path class="cls-1" d="M1737.04,322.51v-33.18c.69-.01,1.38-.03,2.07-.04,0,11.06,0,22.12,0,33.18-.69,.02-1.38,.03-2.07,.03Z"/>
  <path class="cls-1" d="M1741.22,213.13c1.41-4.21,2.82-8.41,4.23-12.62-1.41,4.21-2.82,8.41-4.23,12.62Z"/>
  <path class="cls-1" d="M1739.11,255.21v16.4c-.69,.02-1.38,.03-2.07,.05,0-5.49,0-10.99,0-16.48,.69,0,1.38,.01,2.07,.03Z"/>
  <path class="cls-1" d="M1739.12,356.11c-.7,.02-1.39,.03-2.09,.03,0-5.61,0-11.23,0-16.84,.7,5.6,1.39,11.2,2.09,16.81Z"/>
  <path class="cls-1" d="M1648.79,204.73c1.39,.71,2.78,1.43,4.16,2.14-.88,.3-1.77,.59-3.25,1.08-.32-1.14-.62-2.18-.92-3.22Z"/>
  <path class="cls-1" d="M1745.47,198.44c-.72-.01-1.45-.02-2.17-.04,.92-.47,1.85-.94,2.77-1.41l-.6,1.45Z"/>
  <path class="cls-1" d="M1650.82,200.46c-.69,.72-1.38,1.45-2.07,2.17,.69-.72,1.38-1.45,2.07-2.17Z"/>
  <path class="cls-1" d="M1652.96,206.86c.68,.72,1.35,1.44,2.03,2.16-.68-.72-1.35-1.44-2.03-2.16Z"/>
  <path class="cls-1" d="M1867.28,745.64c-2.04,.71-2.98,1.25-3.94,1.3-.99,.05-2-.38-3.71-.76v-60.27c.86-.64,1.73-1.28,2.59-1.92,1.69,2.33,4.78,4.63,4.84,7,.41,17.99,.22,35.99,.22,54.64Z"/>
  <path class="cls-1" d="M1228.71,477.78c5.55-5.34,13.95-13.41,23.8-22.88,2.45,17.34-12.13,28.16-12.1,43.55h-39.58c-.5-.91-1.01-1.82-1.51-2.73,8.78-5.36,17.55-10.72,29.39-17.94Z"/>
  <path class="cls-1" d="M211.42,482.23c.86-9.03,2.44-18.05,2.46-27.08,.21-71.08,.14-142.17,.09-213.25,0-5.95-.12-11.94-.84-17.83-2.04-16.71-9.52-23.99-26.16-26.13-2.72-.35-5.42-.81-8.29-2.64,1.96-.29,3.93-.82,5.89-.83,59.13-.04,118.25-.2,177.38,.04,30.41,.13,59.9,5.21,87.2,19.46,19.18,10.02,34.71,23.78,41.82,44.92,11.05,32.86-.7,65.43-31.06,84.66-31.49,19.95-66.6,26.12-103.33,24.98,.02-.52,.03-1.04,.03-1.56,21.03-3.48,32.38-17.1,36.74-36.79,6.84-30.86,7.28-61.86-1.64-92.45-9.84-33.74-26.93-44.35-61.87-39.55-11.3,1.55-18.59,7.49-21.58,18.46-1.19,4.36-1.82,8.88-2.7,13.33-.11,1.37-.23,2.73-.34,4.1-.11,7.11-.22,14.22-.33,21.33-.34,6.24-1,12.48-.96,18.72,.19,30.05,.57,60.1,.88,90.15l1.11,2.61c-.07,.78-.14,1.57-.21,2.35,.27,.75,.05,1.3-.67,1.65-.38,1.32-1.09,2.64-1.1,3.96-.07,28.96-.09,57.93,.02,86.89,0,1.95,1.06,3.89,1.63,5.83,2.28,7.58,4.57,15.16,6.85,22.74-.37,2.65-.75,5.3-1.17,8.33h-106.55c3.82-3.49,7.24-6.63,11.03-10.09-1.7-2.47-3.03-4.41-4.35-6.34Zm9.43-30.86c1.08,0,2.16,0,3.25,0,0-3.75,0-7.5,0-11.25,0-31.49-.24-62.98,.17-94.46,.11-8.18,2.73-16.3,3.28-24.51,.63-9.37,2.58-19.58-.21-28.05-4.85-14.72-4.44-28.33,0-40.18-1.83-11.46-3.32-20.81-4.81-30.16-.56,.1-1.12,.2-1.68,.3v228.3Zm12.33-12.24v17.48c2.87-.33,4.98-.58,6.87-.8v-17.26c-2.78,.23-4.67,.39-6.87,.58Z"/>
  <path class="cls-1" d="M211.42,482.23c1.33,1.93,2.66,3.87,4.35,6.34-3.79,3.46-7.21,6.59-11.03,10.09h106.55c.43-3.03,.8-5.68,1.17-8.33,9.31,4.01,18.62,8.02,26.29,11.33H178.77c13.84-1.71,26.5-4.93,32.65-19.42Z"/>
  <path class="cls-1" d="M305.72,369.26c.07-.78,.14-1.57,.21-2.35,16.89,.03,33.79,.06,50.68,.09,0,.52,0,1.04-.03,1.56-16.96,.23-33.91,.47-50.87,.7Z"/>
  <path class="cls-1" d="M305.6,467.59c-.57-1.94-1.63-3.88-1.63-5.83-.1-28.96-.08-57.93-.02-86.89,0-1.32,.71-2.64,1.1-3.96,.18,32.23,.37,64.46,.55,96.69Z"/>
  <path class="cls-1" d="M1727.57,222.97v16.08c-.62,.02-1.23,.03-1.85,.05v-16.07c.62-.02,1.23-.04,1.85-.06Z"/>
  <path class="cls-1" d="M220.85,451.37V223.07c.56-.1,1.12-.2,1.68-.3,1.49,9.35,2.98,18.71,4.81,30.16-4.44,11.86-4.84,25.46,0,40.18,2.79,8.47,.84,18.68,.21,28.05-.56,8.21-3.18,16.33-3.28,24.51-.41,31.48-.17,62.97-.17,94.46,0,3.75,0,7.5,0,11.25-1.08,0-2.16,0-3.25,0Z"/>
  <path class="cls-1" d="M304.9,255.43c-.03,36.29-.06,72.58-.09,108.86-.31-30.05-.69-60.1-.88-90.15-.04-6.24,.62-12.48,.96-18.72Z"/>
  <path class="cls-1" d="M233.18,439.13c2.2-.19,4.09-.35,6.87-.58v17.26c-1.89,.22-4,.46-6.87,.8v-17.48Z"/>
  <path class="cls-1" d="M305.57,229.99c-.11,1.37-.23,2.73-.34,4.1,.11-1.37,.23-2.73,.34-4.1Z"/>
</svg>